PathFileType	4	(X/Y/Z)	30_2_106_p1_0-418.trc
DataRate	CameraRate	NumFrames	NumMarkers	Units	OrigDataRate	OrigDataStartFrame	OrigNumFrames
49.0	49.0	6	27	m	49.0	157	419
Frame#	Time	RHip			RKnee			RAnkle			RBigToe			RSmallToe			RHeel			LHip			LKnee			LAnkle			LBigToe			LSmallToe			LHeel			Neck			Head			Nose			RShoulder			RElbow			RWrist			RThumb			RIndex			RPinky			LShoulder			LElbow			LWrist			LThumb			LIndex			LPinky			
		X1	Y1	Z1	X2	Y2	Z2	X3	Y3	Z3	X4	Y4	Z4	X5	Y5	Z5	X6	Y6	Z6	X7	Y7	Z7	X8	Y8	Z8	X9	Y9	Z9	X10	Y10	Z10	X11	Y11	Z11	X12	Y12	Z12	X13	Y13	Z13	X14	Y14	Z14	X15	Y15	Z15	X16	Y16	Z16	X17	Y17	Z17	X18	Y18	Z18	X19	Y19	Z19	X20	Y20	Z20	X21	Y21	Z21	X22	Y22	Z22	X23	Y23	Z23	X24	Y24	Z24	X25	Y25	Z25	X26	Y26	Z26	X27	Y27	Z27	
157	3.204081632653061	0.2664463018834733	0.505660215148911	0.9050079014457634	0.28755206249310494	0.5412529395586128	1.3482225965264234	0.27771577474788983	0.5856179680674131	1.8327991603316005	0.2565865436974815	0.38517758978244565	1.8274117784320292	0.31259579307291474	0.40461037882144035	1.822381236656306	0.2662076684129631	0.6484655615646324	1.8917938533666285	0.046263151594149295	0.5242640322630734	0.9276257512802042	0.05847830953848821	0.5340988647190867	1.361514619576521	0.07709833812786406	0.5440286539489055	1.8147061716805688	0.09684382774464416	0.3484773347581687	1.792636979544594	0.036909849283176054	0.4060026538711114	1.8196969409031483	0.09192131727767004	0.5862707229968541	1.860595780741207	0.1206752329772599	0.38310020006646844	0.2833379510856419	0.12030420925639043	0.23864079590165518	0.010453299888271414	0.12657080757981878	0.21660337371261978	0.19597467181510678	0.30075484032846483	0.4184962428106928	0.32319708648219786	0.4755790735042635	0.5282802359714891	0.5483601639837903	0.36674550965451264	0.3650191188386684	0.7010873697339957	0.31139510198673703	0.42981499816883006	0.7141886276286782	0.2311123308788358	0.3189813912423013	0.7589919624685633	0.2353569363087463	0.3508924202021714	0.8165416512588152	-0.05057479228646723	0.44942330879368003	0.3554257865648658	-0.1629639968596362	0.5462396108622934	0.5964321189502788	-0.0671487691857354	0.38700113497109556	0.751210128484773	-0.006537767309760246	0.39322213261334577	0.7502293391424458	0.034926084160370435	0.3169465022012607	0.7895091799709983	0.03993138180055732	0.3436513995802453	0.8452373288858115
158	3.2244897959183674	0.2660022656372955	0.5060421076796981	0.9086008687584128	0.2876758585600672	0.5409514332486736	1.3480137687670137	0.27388337150693154	0.5842803857411778	1.827634014001903	0.25360563078839476	0.37311788741771096	1.8156119851749426	0.31657164812190997	0.38910238290035737	1.8076371674115241	0.2662221684887834	0.6483915259250298	1.891874424294015	0.046396109999318376	0.5238776272766731	0.9315955774143831	0.05852239285770827	0.5337871593218809	1.3612117801575143	0.07699681738332013	0.5440248570312988	1.8145808768930278	0.09684414790031003	0.3485183733132641	1.7924009701750392	0.037498736809393925	0.40423358479354915	1.822753291448731	0.09181799053325178	0.5861177072377265	1.860068922108756	0.12379657553338055	0.3945265656152855	0.2812386902085824	0.1170234714597441	0.22968425925842292	0.009872047726870403	0.12311705709099673	0.22803458490855155	0.19394023417498463	0.30110294467777027	0.4190888546462515	0.3235190823536576	0.4719296693575911	0.5285961845755234	0.552941234636461	0.36761046812147846	0.3654788573319685	0.7049652000932427	0.29612148062604954	0.42002902460206376	0.727908274025424	0.23183597148717616	0.31847721896879866	0.7619299751123814	0.24091546851407053	0.33727254938549833	0.8171891452755432	-0.05072524520799543	0.4499693405101431	0.3559316491419395	-0.1577288358997863	0.534267022735072	0.5979576988819676	-0.07085160916588039	0.3850615351670934	0.7551263743636127	0.002068169770066885	0.3933441979021047	0.755387425578268	0.03598993881238733	0.3197322187973148	0.8050974916967643	0.029016740461220544	0.34318403240041623	0.8506503209209478
159	3.2448979591836733	0.2618314608705282	0.504136866291976	0.9089253266344542	0.2877455801678748	0.5404123807571197	1.3476858299362033	0.27851753922654654	0.5856652105292315	1.828201210236835	0.2534978955084903	0.37286200298653976	1.8154279638119313	0.3081188084479916	0.3925114582747616	1.8151674128999427	0.2662832213561641	0.6489707291477388	1.892176327995285	0.042169679356240025	0.5106608981743572	0.9232997501084099	0.05853609768587428	0.5336890841767472	1.3609651041007456	0.0723449797386325	0.5303330966404036	1.8009865808117065	0.08897013099538022	0.3480974626465385	1.7930913695281177	0.03720930862352016	0.4044810007257065	1.8228921438724155	0.09185945511639068	0.5861504508583155	1.859644155128249	0.12388879070610415	0.39466258962178113	0.2811087291952068	0.11981673369330233	0.23913394842536217	0.006756471874853936	0.1228643473502569	0.2286531389893891	0.1906126358477255	0.3013527120717959	0.41830121955340055	0.32997730933288866	0.46709206416322696	0.5169057774130663	0.5539631872684717	0.3675768645593021	0.36320898725885564	0.7159253674780468	0.28527950890768466	0.40924703673476687	0.7457581833859881	0.23745082604891657	0.3229648724061584	0.7765633334551889	0.24961590251366422	0.32432532184279617	0.824907105363213	-0.04802881570920841	0.460944829097724	0.3569470142159655	-0.15972634684421555	0.5213293946615383	0.5992990568288751	-0.06940598042845451	0.36896366063735075	0.7547287757363413	0.020651595268673776	0.34326155814143977	0.7601091036610917	0.03571354156303176	0.31872058442760276	0.8217474964538438	0.01836873372780601	0.36491980676278696	0.8791091818661411
160	3.2653061224489797	0.26613262973568097	0.5034955868465498	0.9126680583298816	0.2877488571568482	0.5402793059506203	1.3473770067359199	0.27894071109290935	0.5838805242770576	1.8320723937012613	0.24952129390731112	0.3611444473834827	1.8081356054104558	0.3072332671242351	0.37478608408472164	1.7993912958353875	0.2671931848810132	0.6480504541192731	1.8965048773647377	0.043234845783400803	0.5111568947427957	0.9239365600676421	0.05506955615283738	0.5208629244823855	1.354791369736886	0.07329753566275098	0.530202946232059	1.7961743739098095	0.08934006244461118	0.34932041340499675	1.7844889455538722	0.03683357816730127	0.4057162948283948	1.8191381925986465	0.08713452185120522	0.6030964339063452	1.8703127734890264	0.12391101081288107	0.3952543311501286	0.27796203022608273	0.11627840733211983	0.2504434346149566	0.004216109044689564	0.12281241733407082	0.22888252858825486	0.19033934017077248	0.30131318115593914	0.4185186253999808	0.3299955227043302	0.46672707740367814	0.5166141068140285	0.5570640824388842	0.3672250449388817	0.3625181187364693	0.7238275955648266	0.2963846969612776	0.4147016161476344	0.7537870261284029	0.244816147052769	0.32211220644694616	0.79885961554982	0.25515753321287377	0.33396778003826777	0.8313084980293113	-0.04801559361370766	0.4613697521784445	0.357182246143386	-0.15967704139786107	0.5212532109785469	0.5993395414453935	-0.06501633568354791	0.35673893658057454	0.7551056629757285	0.021766485384010457	0.3295913102811128	0.7912437412650452	0.032718616976465706	0.3160885991713079	0.8255785349550187	0.005093667259367053	0.388407365817573	0.8954827334579571
161	3.2857142857142856	0.260878204612574	0.4754817898634518	0.9048549586777013	0.28796889735525494	0.5389928100230061	1.350961619104142	0.2828838006070207	0.5998110354569516	1.836809060569506	0.25465676103179213	0.3740866663582383	1.820786377967373	0.30735822231664933	0.37515711926354783	1.7996417347053486	0.26729724280956674	0.6484862615435987	1.8967281344259959	0.04317342108098851	0.509413843043992	0.928226846100179	0.05497595511557563	0.5206812670940288	1.3548602656202722	0.07427844734963576	0.5318964183997782	1.8022472988707825	0.09013824683940627	0.3508099410889704	1.7896279404841302	0.036830156909138975	0.4059470897756036	1.8191984162447865	0.08816644626736725	0.6034417296700434	1.8649029097597565	0.12372799489767466	0.3953161192897108	0.2778350773116554	0.11544010759940566	0.2711227757016619	0.0010919127453078992	0.11899256596167826	0.2398240706228414	0.18529164623581085	0.3051268311825225	0.41971661406381394	0.3299620811827099	0.4625065466820552	0.5161821591533374	0.5613749023701357	0.37081940346869985	0.3490822962371505	0.7318934449939715	0.2625251217706624	0.36346939026290703	0.75863176280832	0.25110810771418024	0.32377373810704957	0.8092167778080859	0.2554938489637635	0.3221390796026923	0.8391353276325467	-0.04826194850298627	0.46122612744000546	0.35722673819068945	-0.15967112602764102	0.5210002969146778	0.599377436541474	-0.06741962301703754	0.3461693228111715	0.7527126915893596	0.02539460398856854	0.3297844802850327	0.7981504350567342	0.032800676247005535	0.3166671262210279	0.826766840121865	-0.003803284486884404	0.39883420348465026	0.9084544066561697
162	3.306122448979592	0.2615721927555596	0.47481143009661525	0.916993675428565	0.2878728562529127	0.5392438870887943	1.3512049474543557	0.27466422086938	0.6131908868814337	1.8512684656948286	0.25473650127593406	0.374493986245339	1.8202182524524566	0.3076376219929031	0.3762902832948108	1.7995005058880889	0.2667430936427847	0.6473517083925138	1.8965144290228408	0.047264026175126095	0.49576598449381765	0.9321272509909295	0.05495413108967929	0.5203568699561487	1.355084973047666	0.07429282102705166	0.531909804947256	1.8024667051398728	0.08620230125448491	0.33787484712131394	1.7767706865517747	0.03688683230848203	0.40596884844695186	1.8190007743726049	0.08814320432389172	0.6032593065495137	1.86499051120035	0.11983597416786776	0.40792149280945744	0.272899538909161	0.1156407445249196	0.270826877165422	0.0011600128651459143	0.12179812629448694	0.250278009089947	0.18250908954831763	0.3019852930487415	0.43234717999205463	0.3351783568803449	0.46269118790012026	0.5148194907478248	0.5652276903726644	0.37128576490166915	0.3467296487503857	0.7430354965313235	0.3029672299975895	0.4180976959838606	0.7679793406801241	0.2534743119004208	0.32297415188404516	0.8249042341398568	0.26160654471195094	0.30278265301845025	0.8478479991821043	-0.048256974053277814	0.4613421289754772	0.35732383802514134	-0.15990904586786273	0.5204548300219295	0.6030741865108674	-0.05958027688657987	0.34878635310115924	0.7572429365421527	0.0227492082003151	0.3428942076476549	0.8116764192440051	0.029809552786486247	0.30507152725499437	0.8346734338777085	0.002732708184100973	0.37972771277919276	0.9066516565371447
